<?xml version="1.0" encoding="UTF-8" standalone="no"?>
<!-- Created with Inkscape (http://www.inkscape.org/) -->

<svg
   width="84.735458mm"
   height="39.867981mm"
   viewBox="0 0 84.735458 39.867981"
   version="1.1"
   id="svg5"
   xmlns:inkscape="http://www.inkscape.org/namespaces/inkscape"
   xmlns:sodipodi="http://sodipodi.sourceforge.net/DTD/sodipodi-0.dtd"
   xmlns="http://www.w3.org/2000/svg"
   xmlns:svg="http://www.w3.org/2000/svg">
  <sodipodi:namedview
     id="namedview7"
     pagecolor="#ffffff"
     bordercolor="#000000"
     borderopacity="0.25"
     inkscape:showpageshadow="2"
     inkscape:pageopacity="0.0"
     inkscape:pagecheckerboard="0"
     inkscape:deskcolor="#d1d1d1"
     inkscape:document-units="mm"
     showgrid="false"
     inkscape:zoom="1.3732434"
     inkscape:cx="314.2196"
     inkscape:cy="610.23412"
     inkscape:window-width="1366"
     inkscape:window-height="711"
     inkscape:window-x="0"
     inkscape:window-y="20"
     inkscape:window-maximized="1"
     inkscape:current-layer="layer1" />
  <defs
     id="defs2" />
  <g
     inkscape:label="Layer 1"
     inkscape:groupmode="layer"
     id="layer1"
     transform="translate(-52.405458,-149.09538)">
    <path
       id="rect3729"
       style="fill:none;fill-opacity:1;stroke:#000000;stroke-width:1"
       d="m 76.480782,161.65461 v -6.88797 c 0,-1.20142 0.967209,-2.16863 2.168629,-2.16863 v 0 h 30.441019 c 1.20142,0 2.16863,0.96721 2.16863,2.16863 v 6.88797"
       inkscape:export-filename="voltametro.svg"
       inkscape:export-xdpi="96"
       inkscape:export-ydpi="96" />
    <path
       id="path3386"
       style="fill:#beffff;fill-opacity:1;stroke:none;stroke-width:1.17443"
       d="m 122.01945,164.99542 -0.0679,16.09384 c -0.0208,4.94015 -3.18895,7.38575 -7.23445,7.38575 H 73.172838 c -4.04549,0 -7.30234,-3.97712 -7.30234,-8.91731 v -14.52472"
       sodipodi:nodetypes="cssssc" />
    <path
       id="path2736"
       style="fill:none;stroke:#000000;stroke-width:1"
       d="m 122.41036,158.8167 v 22.77567 c 0,3.80652 -3.06446,6.87099 -6.87098,6.87099 H 72.725003 c -3.806522,0 -6.870985,-3.06447 -6.870985,-6.87099 V 158.8167" />
    <rect
       style="fill:#808080;fill-opacity:1;stroke:none;stroke-width:0.84301"
       id="rect3698"
       width="4.3372588"
       height="25.384521"
       x="74.338646"
       y="156.96622"
       ry="1.5411716" />
    <rect
       style="fill:#808080;fill-opacity:1;stroke:none;stroke-width:0.84301"
       id="rect3698-3"
       width="4.3372588"
       height="25.384521"
       x="109.10586"
       y="156.96622"
       ry="1.5411716" />
    <path
       id="rect3737"
       style="fill:#d45500;fill-opacity:1;stroke:#d45500;stroke-width:1"
       d="m 91.136962,155.17005 h -2.03962 c -1.201419,0 -2.168629,-0.96721 -2.168629,-2.16863 V 151.764 c 0,-1.20142 0.96721,-2.16863 2.168629,-2.16863 v 0 h 2.039621" />
    <path
       id="path3741"
       style="fill:#000000;fill-opacity:1;stroke:#000000;stroke-width:1"
       d="m 91.136963,149.59537 h 7.52494 c 1.201419,0 2.168627,0.96721 2.168627,2.16863 v 1.23742 c 0,1.20142 -0.967208,2.16863 -2.168627,2.16863 h -7.524941" />
    <text
       xml:space="preserve"
       style="font-size:5.64444px;fill:#000000;fill-opacity:1;stroke:none;stroke-width:1"
       x="87.385117"
       y="154.40152"
       id="text4127"><tspan
         sodipodi:role="line"
         id="tspan4125"
         style="font-size:5.64444px;stroke-width:1"
         x="87.385117"
         y="154.40152">+</tspan></text>
    <text
       xml:space="preserve"
       style="font-size:5.64444px;fill:#000000;fill-opacity:1;stroke:none;stroke-width:1"
       x="97.927155"
       y="153.98021"
       id="text4127-6"><tspan
         sodipodi:role="line"
         id="tspan4125-7"
         style="font-size:5.64444px;fill:#ffffff;stroke-width:1"
         x="97.927155"
         y="153.98021">-</tspan></text>
    <text
       xml:space="preserve"
       style="font-size:5.64444px;fill:#ffffff;fill-opacity:1;stroke:none;stroke-width:1"
       x="114.74378"
       y="155.26221"
       id="text4942"><tspan
         sodipodi:role="line"
         id="tspan4940"
         style="fill:#000000;stroke-width:1"
         x="114.74378"
         y="155.26221">CÁTODO</tspan></text>
    <text
       xml:space="preserve"
       style="font-size:5.64444px;fill:#ffffff;fill-opacity:1;stroke:none;stroke-width:1"
       x="52.405457"
       y="155.26221"
       id="text4942-5"><tspan
         sodipodi:role="line"
         id="tspan4940-3"
         style="fill:#000000;stroke-width:1"
         x="52.405457"
         y="155.26221">ÂNODO</tspan></text>
  </g>
</svg>
